<svg xmlns="http://www.w3.org/2000/svg" width="25" height="24" viewBox="0 0 25 24" fill="none">
  <path d="M12.3946 10.3744H4.60086C3.81192 10.3744 3.17236 11.0139 3.17236 11.8029V14.1452C3.17236 15.0842 3.57987 15.8706 4.19122 16.4114M12.3946 10.3744H20.4404C21.2294 10.3744 21.8689 11.0139 21.8689 11.8029V14.1452C21.7354 15.0688 21.384 15.7656 20.9131 16.2553M12.3946 10.3744V8.01104M12.3946 8.01104C13.8021 8.01104 14.9404 6.80311 14.905 5.40612C14.8696 4.00913 13.8841 2.90954 12.3946 2.00293C10.9722 3.05032 10.1153 4.04064 10.1153 5.40612C10.1153 6.7716 10.9871 8.01104 12.3946 8.01104ZM4.19122 16.4114C5.76138 17.8005 8.67615 17.5699 9.48508 14.1452C10.1363 18.0946 14.7474 18.1681 15.7558 14.1452C15.7558 17.0343 19.1614 18.077 20.9131 16.2553M4.19122 16.4114V20.5209C4.19122 21.3099 4.83078 21.9494 5.61972 21.9494H19.4846C20.2735 21.9494 20.9131 21.3099 20.9131 20.5209V16.2553" stroke="currentColor" stroke-width="1.5" stroke-linejoin="round"/>
</svg>