<svg width="16" height="15" viewBox="0 0 16 15" fill="none" xmlns="http://www.w3.org/2000/svg">
<path d="M0.726165 14.1159C0.591404 14.1159 0.468893 14.0823 0.358633 14.0152C0.248374 13.9481 0.162616 13.8591 0.101361 13.7484C0.0401058 13.6376 0.00653796 13.5181 0.000657449 13.3897C-0.00522306 13.2613 0.0283448 13.1358 0.101361 13.0133L6.9007 1.2523C6.97421 1.12979 7.06927 1.0379 7.1859 0.976649C7.30253 0.915393 7.42186 0.884766 7.54388 0.884766C7.6659 0.884766 7.78547 0.915393 7.90259 0.976649C8.01971 1.0379 8.11454 1.12979 8.18706 1.2523L14.9864 13.0133C15.0599 13.1358 15.0937 13.2615 15.0878 13.3904C15.082 13.5193 15.0481 13.6386 14.9864 13.7484C14.9247 13.8581 14.8389 13.9471 14.7291 14.0152C14.6194 14.0833 14.4968 14.1169 14.3616 14.1159H0.726165ZM1.99415 12.6458H13.0936L7.54388 3.08996L1.99415 12.6458ZM7.54388 11.9107C7.75215 11.9107 7.92685 11.8402 8.06798 11.699C8.20911 11.5579 8.27944 11.3834 8.27894 11.1757C8.27845 10.9679 8.20789 10.7934 8.06725 10.6523C7.9266 10.5112 7.75215 10.4406 7.54388 10.4406C7.33561 10.4406 7.16116 10.5112 7.02052 10.6523C6.87987 10.7934 6.80931 10.9679 6.80882 11.1757C6.80833 11.3834 6.87889 11.5581 7.02052 11.6998C7.16214 11.8414 7.33659 11.9117 7.54388 11.9107ZM7.54388 9.70553C7.75215 9.70553 7.92685 9.63496 8.06798 9.49383C8.20911 9.3527 8.27944 9.17824 8.27894 8.97047V6.76528C8.27894 6.55701 8.20838 6.38255 8.06725 6.24191C7.92611 6.10127 7.75166 6.0307 7.54388 6.03021C7.3361 6.02972 7.16165 6.10029 7.02052 6.24191C6.87938 6.38353 6.80882 6.55799 6.80882 6.76528V8.97047C6.80882 9.17873 6.87938 9.35343 7.02052 9.49457C7.16165 9.6357 7.3361 9.70602 7.54388 9.70553Z" fill="currentColor"/>
</svg>
