<svg width="19" height="19" viewBox="0 0 19 19" fill="none" xmlns="http://www.w3.org/2000/svg">
<path d="M8.56938 15.6385C8.34033 15.8675 8.0297 15.9961 7.70582 15.9961C7.38194 15.9961 7.07131 15.8675 6.84226 15.6385L1.34575 10.142C1.11676 9.9129 0.988121 9.60228 0.988121 9.27839C0.988121 8.95451 1.11676 8.64389 1.34575 8.41483L6.84226 2.91832C7.07263 2.69582 7.38116 2.57271 7.70142 2.57549C8.02168 2.57827 8.21404 2.70673 8.4405 2.9332C8.66697 3.15966 8.79543 3.46602 8.79821 3.78628C8.80099 4.10654 8.67788 4.41508 8.45538 4.64544L5.14893 8.13295L16.7527 8.13295C17.0766 8.13295 17.3873 8.26164 17.6164 8.4907C17.8454 8.71977 17.9741 8.95445 17.9741 9.27839C17.9741 9.60234 17.8454 9.83702 17.6164 10.0661C17.3873 10.2952 17.0766 10.4238 16.7527 10.4238L5.14893 10.4238L8.45538 13.9113C8.68437 14.1404 8.81301 14.451 8.81301 14.7749C8.81301 15.0988 8.79837 15.4094 8.56938 15.6385Z" fill="currentColor"/>
</svg>
