<svg width="1184" height="1184" viewBox="0 0 1184 1184" fill="none" xmlns="http://www.w3.org/2000/svg">
<path d="M431.477 798.9L986.723 243.655C999.826 230.552 1015.11 224 1032.58 224C1050.06 224 1065.34 230.552 1078.45 243.655C1091.55 256.758 1098.1 272.329 1098.1 290.367C1098.1 308.406 1091.55 323.955 1078.45 337.015L477.338 939.759C464.235 952.862 448.948 959.414 431.477 959.414C414.007 959.414 398.72 952.862 385.616 939.759L103.899 658.042C90.7956 644.939 84.5061 629.389 85.0302 611.394C85.5544 593.399 92.3898 577.829 105.537 564.682C118.683 551.535 134.254 544.983 152.249 545.027C170.244 545.071 185.793 551.622 198.897 564.682L431.477 798.9Z" fill="currentColor"/>
</svg>
