<svg width="22" height="22" viewBox="0 0 22 22" fill="none" xmlns="http://www.w3.org/2000/svg">
<path fill-rule="evenodd" clip-rule="evenodd" d="M19.4647 3.74311C19.5931 3.60531 19.663 3.42305 19.6597 3.23473C19.6563 3.04641 19.5801 2.86673 19.4469 2.73354C19.3137 2.60036 19.134 2.52407 18.9457 2.52074C18.7574 2.51742 18.5751 2.58732 18.4373 2.71573L2.92961 18.2234C2.85819 18.29 2.8009 18.3702 2.76117 18.4594C2.72144 18.5486 2.70008 18.6448 2.69836 18.7424C2.69663 18.84 2.71459 18.937 2.75115 19.0275C2.78771 19.118 2.84213 19.2002 2.91115 19.2693C2.98018 19.3383 3.0624 19.3927 3.15292 19.4293C3.24343 19.4658 3.34038 19.4838 3.43799 19.4821C3.53559 19.4803 3.63185 19.459 3.72102 19.4192C3.81019 19.3795 3.89044 19.3222 3.95699 19.2508L6.71639 16.4914C8.04133 17.1156 9.56593 17.5256 11.1971 17.5256C13.7986 17.5256 16.1305 16.4817 17.8073 15.1946C18.6476 14.55 19.3416 13.8309 19.832 13.1243C20.3089 12.4371 20.6471 11.684 20.6471 10.9833C20.6471 10.2825 20.3079 9.52942 19.832 8.84224C19.3416 8.13567 18.6476 7.41747 17.8083 6.77196C17.5537 6.57617 17.2849 6.38782 17.0019 6.2069L19.4647 3.74311ZM15.9464 7.26239L14.2299 8.9789C14.6926 9.67784 14.8996 10.5153 14.8157 11.3493C14.7318 12.1834 14.3621 12.9628 13.7694 13.5555C13.1766 14.1482 12.3972 14.5179 11.5632 14.6018C10.7291 14.6857 9.89172 14.4788 9.19277 14.016L7.81937 15.3884C8.89087 15.8313 10.0378 16.0633 11.1971 16.0717C13.4138 16.0717 15.4424 15.1771 16.9224 14.0412C17.6609 13.4742 18.2444 12.8607 18.6379 12.2956C19.044 11.7102 19.1933 11.2517 19.1933 10.9833C19.1933 10.7148 19.044 10.2563 18.6379 9.67093C18.2444 9.10587 17.6609 8.49234 16.9224 7.92534C16.6187 7.69208 16.294 7.4711 15.9464 7.26239ZM10.256 12.9518C10.663 13.1461 11.1201 13.2095 11.5646 13.1333C12.0091 13.057 12.419 12.8448 12.7379 12.526C13.0568 12.2071 13.269 11.7972 13.3452 11.3527C13.4215 10.9082 13.3581 10.451 13.1637 10.0441L10.256 12.9518Z" fill="currentColor"/>
<path d="M11.1971 4.44098C12.1973 4.44098 13.1588 4.59606 14.0573 4.85872C14.0966 4.87046 14.1322 4.89227 14.1605 4.922C14.1888 4.95173 14.2089 4.98835 14.2186 5.02821C14.2284 5.06808 14.2276 5.10981 14.2163 5.14928C14.205 5.18874 14.1836 5.22456 14.1542 5.25319L13.3555 6.05281C13.3261 6.08254 13.2895 6.10415 13.2492 6.11553C13.209 6.12691 13.1665 6.12767 13.1258 6.11775C12.4932 5.9719 11.8463 5.89713 11.1971 5.89482C8.98044 5.89482 6.95184 6.78942 5.47182 7.92536C4.73327 8.49236 4.14979 9.10589 3.75629 9.67095C3.35018 10.2564 3.20092 10.7148 3.20092 10.9833C3.20092 11.2518 3.35018 11.7102 3.75629 12.2956C4.09939 12.7899 4.58789 13.3201 5.1985 13.8241C5.31093 13.9162 5.32159 14.0858 5.21789 14.1895L4.53167 14.8767C4.48964 14.9193 4.43312 14.9446 4.37332 14.9474C4.31353 14.9503 4.25484 14.9306 4.20892 14.8922C3.58474 14.3778 3.03107 13.7834 2.56219 13.1243C2.0863 12.4371 1.74707 11.684 1.74707 10.9833C1.74707 10.2825 2.0863 9.52944 2.56219 8.84226C3.05262 8.13569 3.74659 7.41749 4.58595 6.77198C6.26369 5.48484 8.59565 4.44098 11.1971 4.44098Z" fill="currentColor"/>
<path d="M11.1971 7.34863C11.3121 7.34863 11.4255 7.3538 11.5373 7.36414C11.7282 7.38256 11.797 7.61032 11.6623 7.74602L10.4866 8.92072C10.1737 9.02921 9.88946 9.20725 9.65527 9.44144C9.42108 9.67563 9.24304 9.95988 9.13455 10.2728L7.95985 11.4485C7.82415 11.5842 7.59638 11.5144 7.57797 11.3234C7.5306 10.8196 7.58896 10.3115 7.74931 9.83155C7.90965 9.3516 8.16845 8.91042 8.50913 8.53625C8.84981 8.16209 9.26487 7.86319 9.72773 7.65868C10.1906 7.45417 10.6911 7.34857 11.1971 7.34863Z" fill="currentColor"/>
</svg>
