<svg width="22" height="22" viewBox="0 0 22 22" fill="none" xmlns="http://www.w3.org/2000/svg">
<path fill-rule="evenodd" clip-rule="evenodd" d="M7.5625 10.995C7.5625 10.031 7.94543 9.10653 8.62705 8.42491C9.30868 7.74328 10.2332 7.36035 11.1971 7.36035C12.1611 7.36035 13.0856 7.74328 13.7672 8.42491C14.4488 9.10653 14.8317 10.031 14.8317 10.995C14.8317 11.9589 14.4488 12.8834 13.7672 13.565C13.0856 14.2467 12.1611 14.6296 11.1971 14.6296C10.2332 14.6296 9.30868 14.2467 8.62705 13.565C7.94543 12.8834 7.5625 11.9589 7.5625 10.995ZM11.1971 8.8142C10.6187 8.8142 10.0641 9.04396 9.65508 9.45293C9.24611 9.8619 9.01635 10.4166 9.01635 10.995C9.01635 11.5733 9.24611 12.128 9.65508 12.537C10.0641 12.946 10.6187 13.1757 11.1971 13.1757C11.7755 13.1757 12.3302 12.946 12.7392 12.537C13.1481 12.128 13.3779 11.5733 13.3779 10.995C13.3779 10.4166 13.1481 9.8619 12.7392 9.45293C12.3302 9.04396 11.7755 8.8142 11.1971 8.8142Z" fill="currentColor" />
<path fill-rule="evenodd" clip-rule="evenodd" d="M3.75629 9.68261C3.35018 10.268 3.20092 10.7265 3.20092 10.9949C3.20092 11.2634 3.35018 11.7219 3.75629 12.3073C4.14979 12.8723 4.73327 13.4859 5.47182 14.0529C6.95184 15.1888 8.98044 16.0834 11.1971 16.0834C13.4137 16.0834 15.4423 15.1888 16.9223 14.0529C17.6609 13.4859 18.2443 12.8723 18.6379 12.3073C19.044 11.7219 19.1932 11.2634 19.1932 10.9949C19.1932 10.7265 19.044 10.268 18.6379 9.68261C18.2443 9.11754 17.6609 8.50402 16.9223 7.93702C15.4423 6.80108 13.4137 5.90648 11.1971 5.90648C8.98044 5.90648 6.95184 6.80108 5.47182 7.93702C4.73327 8.50402 4.14979 9.11754 3.75629 9.68261ZM4.58595 6.78364C6.26369 5.4965 8.59566 4.45264 11.1971 4.45264C13.7985 4.45264 16.1305 5.4965 17.8072 6.78364C18.6475 7.42818 19.3415 8.14734 19.8319 8.85391C20.3088 9.5411 20.6471 10.2942 20.6471 10.9949C20.6471 11.6957 20.3078 12.4488 19.8319 13.136C19.3415 13.8425 18.6475 14.5607 17.8082 15.2063C16.1314 16.4934 13.7985 17.5373 11.1971 17.5373C8.59566 17.5373 6.26369 16.4934 4.58692 15.2063C3.74659 14.5617 3.05262 13.8425 2.56219 13.136C2.0863 12.4488 1.74707 11.6957 1.74707 10.9949C1.74707 10.2942 2.0863 9.5411 2.56219 8.85391C3.05262 8.14734 3.74659 7.42914 4.58595 6.78364Z" fill="currentColor" />
</svg>
