<svg width="14" height="15" viewBox="0 0 14 15" fill="none" xmlns="http://www.w3.org/2000/svg">
<g clip-path="url(#clip0_39_1975)">
<path d="M3.37191 3.10431C3.37191 2.28461 4.03641 1.62012 4.85611 1.62012C5.67581 1.62012 6.34031 2.28461 6.34031 3.10431M3.37191 3.10431C3.37191 3.92401 4.03641 4.58851 4.85611 4.58851C5.67581 4.58851 6.34031 3.92401 6.34031 3.10431M3.37191 3.10431H1.67993M6.34031 3.10431H12.2919M7.70577 7.52722C7.70577 6.68293 8.3902 5.99849 9.23449 5.99849C10.0788 5.99849 10.7632 6.68293 10.7632 7.52722M7.70577 7.52722C7.70577 8.37151 8.3902 9.05594 9.23449 9.05594C10.0788 9.05594 10.7632 8.37151 10.7632 7.52722M7.70577 7.52722H1.67993M10.7632 7.52722H12.2919M3.37191 11.8759C3.37191 11.0562 4.03641 10.3917 4.85611 10.3917C5.67581 10.3917 6.34031 11.0562 6.34031 11.8759M3.37191 11.8759C3.37191 12.6956 4.03641 13.3601 4.85611 13.3601C5.67581 13.3601 6.34031 12.6956 6.34031 11.8759M3.37191 11.8759H1.67993M6.34031 11.8759H12.2919" stroke="currentColor" stroke-width="1.5" stroke-linecap="round"/>
</g>
<defs>
<clipPath id="clip0_39_1975">
<rect width="14" height="14" fill="white" transform="translate(0 0.5)"/>
</clipPath>
</defs>
</svg>
