<svg width="17" height="19" viewBox="0 0 17 19" fill="none" xmlns="http://www.w3.org/2000/svg">
<path d="M2.0779 16.135H5.19475V10.9402C5.19475 10.6459 5.29449 10.3993 5.49397 10.2005C5.69345 10.0017 5.94003 9.90197 6.2337 9.90128H10.3895C10.6839 9.90128 10.9308 10.001 11.1303 10.2005C11.3298 10.4 11.4292 10.6466 11.4285 10.9402V16.135H14.5453V6.78443L8.31161 2.10915L2.0779 6.78443V16.135ZM0 16.135V6.78443C0 6.45543 0.0737653 6.14374 0.221296 5.84937C0.368827 5.55501 0.572116 5.31258 0.831161 5.12211L7.06486 0.44683C7.4285 0.169777 7.84408 0.03125 8.31161 0.03125C8.77913 0.03125 9.19471 0.169777 9.55835 0.44683L15.7921 5.12211C16.0518 5.31258 16.2554 5.55501 16.403 5.84937C16.5505 6.14374 16.6239 6.45543 16.6232 6.78443V16.135C16.6232 16.7064 16.4196 17.1958 16.0123 17.603C15.605 18.0103 15.116 18.2136 14.5453 18.2129H10.3895C10.0951 18.2129 9.84856 18.1131 9.64977 17.9137C9.45099 17.7142 9.35125 17.4676 9.35056 17.1739V11.9792H7.27265V17.1739C7.27265 17.4683 7.17292 17.7152 6.97344 17.9147C6.77396 18.1142 6.52738 18.2136 6.2337 18.2129H2.0779C1.50648 18.2129 1.01748 18.0096 0.610903 17.603C0.204327 17.1964 0.000692634 16.7071 0 16.135Z" fill="currentColor"/>
</svg>
