<svg width="25" height="24" viewBox="0 0 25 24" fill="none" xmlns="http://www.w3.org/2000/svg">
<path d="M20 16.2655H17.5V18.821H20M20 11.1544H17.5V13.7099H20M22.5 21.3766H12.5V18.821H15V16.2655H12.5V13.7099H15V11.1544H12.5V8.5988H22.5M10 6.04324H7.5V3.48768H10M10 11.1544H7.5V8.5988H10M10 16.2655H7.5V13.7099H10M10 21.3766H7.5V18.821H10M5 6.04324H2.5V3.48768H5M5 11.1544H2.5V8.5988H5M5 16.2655H2.5V13.7099H5M5 21.3766H2.5V18.821H5M12.5 6.04324V0.932129H0V23.9321H25V6.04324H12.5Z" fill="currentColor"/>
</svg>
