<svg width="113" height="107" viewBox="0 0 113 107" fill="none" xmlns="http://www.w3.org/2000/svg">
<path d="M17.0752 82.3446C27.4079 111.182 89.0092 117.563 110.244 61.5607C111.857 57.3087 108.118 55.3953 105.78 58.5843C101.894 66.6856 99.1943 71.1654 93.0239 78.9938C89.8349 82.608 84.7325 78.9938 86.4333 74.9544C95.4741 62.5072 99.6431 55.1667 105.142 41.3638C107.259 36.0489 101.649 34.9859 100.252 38.1748C94.7645 50.7061 91.0676 57.5395 82.8191 69.2143C79.4175 73.4662 73.4648 69.8521 75.8034 64.9623C85.5975 50.4982 90.2172 42.302 94.9372 27.3323C96.412 22.6552 90.0726 21.3796 88.5593 25.8441C82.6684 43.2234 78.142 49.4426 65.386 62.1985C55.6065 69.8521 48.3782 59.0095 52.6301 53.0567L57.2343 47.4934C57.5652 47.0935 57.8615 46.6558 58.0372 46.1675C59.7538 41.3954 54.4242 39.6307 51.9923 41.1512C33.0836 52.9738 31.604 62.255 27.9687 81.1198C26.6285 86.0977 19.426 87.2824 17.0752 82.3446Z" fill="currentColor"/>
<path d="M76.8664 6.71027C47.7402 -4.34477 16.2756 9.68674 3.73223 43.7024C-0.303667 51.5686 9.53823 55.0824 12.6616 47.7418M12.6616 47.7418C15.785 40.4012 18.4523 36.7248 23.5041 30.3087M12.6616 47.7418C9.79919 54.7305 8.27477 58.6684 6.92145 66.0253C5.43326 73.6788 14.3624 76.4426 17.5514 69.2143M17.5514 69.2143C20.5233 56.9896 22.8835 50.284 31.3703 39.2378M17.5514 69.2143C16.3345 73.4866 16.1341 75.9591 16.4884 80.482M16.4884 80.482C16.6152 81.1796 16.8156 81.7994 17.0752 82.3446M16.4884 80.482C16.6604 81.1127 16.8563 81.7337 17.0752 82.3446M17.0752 82.3446C27.4079 111.182 89.0092 117.563 110.244 61.5607C111.857 57.3087 108.118 55.3953 105.78 58.5843C101.894 66.6856 99.1943 71.1654 93.0239 78.9938C89.8349 82.608 84.7325 78.9938 86.4333 74.9544C95.4741 62.5072 99.6431 55.1667 105.142 41.3638C107.259 36.0489 101.649 34.9859 100.252 38.1748C94.7645 50.7061 91.0676 57.5395 82.8191 69.2143C79.4175 73.4662 73.4648 69.8521 75.8034 64.9623C85.5975 50.4982 90.2172 42.302 94.9372 27.3323C96.412 22.6552 90.0726 21.3796 88.5593 25.8441C82.6684 43.2234 78.142 49.4426 65.386 62.1985C55.6065 69.8521 48.3782 59.0095 52.6301 53.0567L57.2343 47.4934C57.5652 47.0935 57.8615 46.6558 58.0372 46.1675C59.7538 41.3954 54.4242 39.6307 51.9923 41.1512C33.0836 52.9738 31.604 62.255 27.9687 81.1198C26.6285 86.0977 19.426 87.2824 17.0752 82.3446Z" stroke="currentColor" stroke-width="4.25197" stroke-linecap="round" stroke-linejoin="round"/>
</svg>
