<svg xmlns="http://www.w3.org/2000/svg" width="20" height="19" viewBox="0 0 20 19" fill="none">
  <path d="M6.4375 19C4.7838 19 3.38061 18.4237 2.22795 17.271C1.07528 16.1183 0.499297 14.7159 0.500001 13.0636C0.500001 12.2719 0.649538 11.5154 0.948612 10.7941C1.24769 10.0728 1.6787 9.43033 2.24167 8.86667L9.36667 1.74167C9.92963 1.1787 10.5718 0.747685 11.2931 0.448611C12.0144 0.149537 12.7708 0 13.5625 0C15.2162 0 16.6194 0.575981 17.7721 1.72794C18.9247 2.87991 19.5007 4.28309 19.5 5.9375C19.5 6.72917 19.3505 7.48565 19.0514 8.20694C18.7523 8.92824 18.3213 9.57037 17.7583 10.1333L10.6333 17.2583C10.0704 17.8213 9.42824 18.2523 8.70694 18.5514C7.98565 18.8505 7.22917 19 6.4375 19ZM13.4569 11.4528L16.2806 8.65556C16.6324 8.3037 16.9051 7.89028 17.0986 7.41528C17.2921 6.94028 17.3889 6.44769 17.3889 5.9375C17.3889 4.88194 17.0152 3.9805 16.2679 3.23317C15.5206 2.48583 14.6188 2.11181 13.5625 2.11111C13.0523 2.11111 12.5597 2.20787 12.0847 2.40139C11.6097 2.59491 11.1963 2.86759 10.8444 3.21944L8.04722 6.04306L13.4569 11.4528ZM6.4375 16.8889C6.94769 16.8889 7.44028 16.7921 7.91528 16.5986C8.39028 16.4051 8.8037 16.1324 9.15556 15.7806L11.9528 12.9569L6.54306 7.54722L3.71945 10.3444C3.36759 10.6963 3.09491 11.1097 2.90139 11.5847C2.70787 12.0597 2.61111 12.5523 2.61111 13.0625C2.61111 14.1181 2.98513 15.0199 3.73317 15.7679C4.4812 16.5159 5.38265 16.8896 6.4375 16.8889Z" fill="currentColor"/>
</svg>