<svg width="21" height="21" viewBox="0 0 21 21" fill="none" xmlns="http://www.w3.org/2000/svg">
<path d="M17.2258 4.34062C14.2168 5.22287 13.1839 4.64409 12.5442 1.6377H8.47233C7.87904 4.54242 6.8956 5.1963 3.79073 4.34062L1.80603 7.77822C4.30696 9.79972 4.18716 10.9914 1.80603 13.2002L3.79073 16.6378C6.84729 15.5547 7.81679 16.2432 8.47233 19.3407H12.5442C13.1776 16.1476 14.2315 15.6076 17.2258 16.6378L19.2105 13.2002C16.9336 11.0828 16.5658 9.8956 19.2105 7.77822L17.2258 4.34062Z" stroke="currentColor" stroke-width="2" stroke-linecap="round" stroke-linejoin="round"/>
<path d="M7.42712 10.4561C7.42712 8.79653 8.77248 7.45117 10.4321 7.45117C12.0916 7.45117 13.437 8.79653 13.437 10.4561C13.437 12.1157 12.0916 13.461 10.4321 13.461C8.77248 13.461 7.42712 12.1157 7.42712 10.4561Z" stroke="currentColor" stroke-width="2" stroke-linecap="round" stroke-linejoin="round"/>
</svg>
