<svg width="25" height="26" viewBox="0 0 25 26" fill="none" xmlns="http://www.w3.org/2000/svg">
<path d="M12.5132 13.449C12.5527 13.449 12.8459 13.4494 12.8853 13.4502C14.5026 13.4807 16.0471 14.1365 17.193 15.2824C18.3668 16.4562 19.0263 18.0483 19.0263 19.7084V24.6821H16.5226V19.7084C16.5226 18.7505 16.1566 17.8287 15.4994 17.1317C14.8422 16.4348 13.9435 16.0153 12.9872 15.9591L12.5132 15.9528C12.468 15.9528 11.9153 15.9536 11.8703 15.9552C10.9612 15.9879 10.3468 16.3498 9.6827 16.9759C8.98572 17.6331 8.56622 18.5318 8.51002 19.4881L8.50376 19.7084V24.6821H6L6.25376 19.7084C6.25376 18.0483 6.65947 16.4562 7.83334 15.2824C8.97926 14.1365 10.27 13.4807 11.8872 13.4502C11.9266 13.4494 12.4736 13.449 12.5132 13.449ZM12.5132 2.18213C13.8412 2.18213 15.1149 2.70971 16.054 3.6488C16.9931 4.58789 17.5207 5.86157 17.5207 7.18965C17.5207 8.51772 16.9931 9.79141 16.054 10.7305C15.1149 11.6696 13.8412 12.1972 12.5132 12.1972C11.1851 12.1972 9.9114 11.6696 8.97231 10.7305C8.03322 9.79141 7.50564 8.51772 7.50564 7.18965C7.50564 5.86157 8.03322 4.58789 8.97231 3.6488C9.9114 2.70971 11.1851 2.18213 12.5132 2.18213ZM12.5132 4.68589C11.8491 4.68589 11.2123 4.94968 10.7427 5.41922C10.2732 5.88877 10.0094 6.52561 10.0094 7.18965C10.0094 7.85368 10.2732 8.49053 10.7427 8.96007C11.2123 9.42962 11.8491 9.69341 12.5132 9.69341C13.1772 9.69341 13.814 9.42962 14.2836 8.96007C14.7531 8.49053 15.0169 7.85368 15.0169 7.18965C15.0169 6.52561 14.7531 5.88877 14.2836 5.41922C13.814 4.94968 13.1772 4.68589 12.5132 4.68589Z" fill="currentColor"/>
</svg>
