<svg width="99" height="92" viewBox="0 0 99 92" fill="none" xmlns="http://www.w3.org/2000/svg">
<path d="M15.2122 71.1319C24.2149 96.2575 77.8873 101.818 96.3892 53.0232C97.794 49.3185 94.5369 47.6514 92.4993 50.4299C89.1137 57.4884 86.7615 61.3916 81.3853 68.2124C78.6067 71.3614 74.1611 68.2124 75.643 64.693C83.5201 53.8478 87.1525 47.4522 91.9436 35.4259C93.7885 30.795 88.9 29.8689 87.6832 32.6474C82.9019 43.5657 79.6808 49.5195 72.494 59.6916C69.5303 63.3963 64.3437 60.2473 66.3813 55.9869C74.9147 43.3846 78.9399 36.2433 83.0524 23.2004C84.3373 19.1253 78.8139 18.0139 77.4953 21.9038C72.3627 37.0461 68.4188 42.4648 57.3048 53.5789C48.784 60.2473 42.486 50.8004 46.1907 45.6138L50.2023 40.7665C50.4906 40.4181 50.7487 40.0368 50.9018 39.6113C52.3975 35.4534 47.7539 33.9159 45.635 35.2407C29.1601 45.5415 27.871 53.6281 24.7035 70.0648C23.5358 74.402 17.2604 75.4341 15.2122 71.1319Z" fill="#8753FF"/>
<path d="M67.3074 5.23271C41.9302 -4.3994 14.5155 7.82607 3.58661 37.4635C0.0701866 44.3172 8.64531 47.3787 11.3667 40.9829M11.3667 40.9829C14.088 34.5872 16.412 31.384 20.8136 25.7937M11.3667 40.9829C8.87268 47.0721 7.54447 50.5032 6.36534 56.9131C5.0687 63.5816 12.8485 65.9896 15.6271 59.6916M15.6271 59.6916C18.2165 49.0404 20.2728 43.1979 27.6673 33.5736M15.6271 59.6916C14.5668 63.4141 14.3922 65.5683 14.7009 69.5091M14.7009 69.5091C14.8114 70.1169 14.986 70.6569 15.2122 71.1319M14.7009 69.5091C14.8508 70.0586 15.0214 70.5996 15.2122 71.1319M15.2122 71.1319C24.2149 96.2575 77.8873 101.818 96.3892 53.0232C97.794 49.3185 94.5369 47.6514 92.4993 50.4299C89.1137 57.4884 86.7615 61.3916 81.3853 68.2124C78.6067 71.3614 74.1611 68.2124 75.643 64.693C83.5201 53.8478 87.1525 47.4522 91.9436 35.4259C93.7885 30.795 88.9 29.8689 87.6832 32.6474C82.9019 43.5657 79.6808 49.5195 72.494 59.6916C69.5303 63.3963 64.3437 60.2473 66.3813 55.9869C74.9147 43.3846 78.9399 36.2433 83.0524 23.2004C84.3373 19.1253 78.8139 18.0139 77.4953 21.9038C72.3627 37.0461 68.4188 42.4648 57.3048 53.5789C48.784 60.2473 42.486 50.8004 46.1907 45.6138L50.2023 40.7665C50.4906 40.4181 50.7487 40.0368 50.9018 39.6113C52.3975 35.4534 47.7539 33.9159 45.635 35.2407C29.1601 45.5415 27.871 53.6281 24.7035 70.0648C23.5358 74.402 17.2604 75.4341 15.2122 71.1319Z" stroke="#8753FF" stroke-width="3.70469" stroke-linecap="round" stroke-linejoin="round"/>
</svg>
