<svg width="1001" height="1001" viewBox="0 0 1001 1001" fill="none" xmlns="http://www.w3.org/2000/svg">
<rect width="1001" height="1001" fill="#F0EAFF"/>
<path d="M294.849 650.46C348.568 800.383 668.826 833.559 779.226 542.407C787.608 520.301 768.173 510.354 756.015 526.933C735.813 569.051 721.778 592.341 689.698 633.04C673.119 651.829 646.592 633.04 655.435 612.039C702.437 547.327 724.111 509.165 752.699 437.405C763.707 409.773 734.538 404.247 727.278 420.826C698.748 485.975 679.528 521.501 636.645 582.197C618.96 604.302 588.013 585.513 600.171 560.091C651.089 484.894 675.107 442.283 699.646 364.457C707.313 340.141 674.355 333.509 666.487 356.72C635.861 447.073 612.329 479.406 546.012 545.723C495.169 585.513 457.59 529.143 479.695 498.196L503.632 469.272C505.352 467.194 506.893 464.918 507.806 462.379C516.731 437.569 489.023 428.395 476.38 436.3C378.075 497.764 370.383 546.016 351.483 644.092C344.515 669.972 307.07 676.131 294.849 650.46Z" fill="#8753FF"/>
<path d="M605.697 257.245C454.273 199.771 290.692 272.719 225.48 449.564C204.498 490.459 255.665 508.727 271.903 470.564M271.903 470.564C288.141 432.401 302.008 413.287 328.272 379.931M271.903 470.564C257.022 506.897 249.096 527.37 242.061 565.618C234.324 605.408 280.745 619.776 297.324 582.197M297.324 582.197C312.775 518.642 325.045 483.78 369.168 426.353M297.324 582.197C290.998 604.409 289.956 617.263 291.798 640.777M291.798 640.777C292.457 644.403 293.499 647.626 294.849 650.46M291.798 640.777C292.692 644.056 293.711 647.284 294.849 650.46M294.849 650.46C348.568 800.383 668.826 833.559 779.226 542.407C787.608 520.301 768.173 510.354 756.015 526.933C735.813 569.051 721.778 592.341 689.698 633.04C673.119 651.829 646.592 633.04 655.435 612.039C702.437 547.327 724.111 509.165 752.699 437.405C763.707 409.773 734.538 404.247 727.278 420.826C698.748 485.975 679.528 521.501 636.645 582.197C618.96 604.302 588.013 585.513 600.171 560.091C651.089 484.894 675.107 442.283 699.646 364.457C707.313 340.141 674.355 333.509 666.487 356.72C635.861 447.073 612.329 479.406 546.012 545.723C495.169 585.513 457.59 529.143 479.695 498.196L503.632 469.272C505.352 467.194 506.893 464.918 507.806 462.379C516.731 437.569 489.023 428.395 476.38 436.3C378.075 497.764 370.383 546.016 351.483 644.092C344.515 669.972 307.07 676.131 294.849 650.46Z" stroke="#8753FF" stroke-width="22.1056" stroke-linecap="round" stroke-linejoin="round"/>
</svg>
